<svg width="17" height="17" viewBox="0 0 17 17" fill="none" xmlns="http://www.w3.org/2000/svg">
<path d="M6.37532 0.295698C6.56891 0.531712 6.63499 0.887411 6.46074 1.20713C5.86511 2.30004 5.5266 3.55196 5.5266 4.88416C5.5266 9.15588 9.01032 12.6147 13.3027 12.6147C13.862 12.6147 14.4069 12.5561 14.9318 12.4449C15.2907 12.3689 15.6171 12.5311 15.7921 12.7804C15.9726 13.0376 16.0104 13.4213 15.7588 13.7301C14.1348 15.7234 11.6501 17 8.86504 17C3.96676 17 0 13.0542 0 8.1919C0 4.53242 2.24628 1.39396 5.44376 0.0638433C5.81319 -0.0898356 6.17556 0.0521615 6.37532 0.295698ZM5.1616 1.39256C2.73594 2.70118 1.08897 5.25523 1.08897 8.1919C1.08897 12.4636 4.57269 15.9225 8.86504 15.9225C11.0283 15.9225 12.9854 15.0448 14.3959 13.6259C14.0375 13.6697 13.6726 13.6923 13.3027 13.6923C8.40439 13.6923 4.43763 9.74651 4.43763 4.88416C4.43763 3.64453 4.69567 2.46365 5.1616 1.39256Z" fill="#004972"/>
<path d="M11.469 3.345C11.539 3.135 11.836 3.135 11.906 3.34501L12.3175 4.57948C12.501 5.12975 12.9327 5.56155 13.483 5.74497L14.7175 6.15647C14.9275 6.22647 14.9275 6.52352 14.7175 6.59352L13.483 7.00502C12.9328 7.18844 12.501 7.62024 12.3175 8.17051L11.906 9.40499C11.836 9.615 11.539 9.615 11.469 9.405L11.0575 8.1705C10.8741 7.62023 10.4423 7.18844 9.892 7.00502L8.65751 6.59352C8.4475 6.52352 8.4475 6.22647 8.65751 6.15647L9.892 5.74497C10.4423 5.56155 10.8741 5.12976 11.0575 4.57949L11.469 3.345Z" fill="#004972"/>
<path d="M14.7293 0.105003C14.776 -0.0350019 14.974 -0.0350007 15.0207 0.105005L15.295 0.927989C15.4173 1.29483 15.7052 1.5827 16.072 1.70498L16.895 1.97931C17.035 2.02598 17.035 2.22401 16.895 2.27068L16.072 2.54501C15.7052 2.66729 15.4173 2.95516 15.295 3.32201L15.0207 4.145C14.974 4.285 14.776 4.285 14.7293 4.145L14.455 3.322C14.3327 2.95516 14.0448 2.6673 13.678 2.54501L12.855 2.27068C12.715 2.22401 12.715 2.02598 12.855 1.97931L13.678 1.70498C14.0448 1.5827 14.3327 1.29484 14.455 0.927996L14.7293 0.105003Z" fill="#004972"/>
</svg>
