<svg width="17" height="17" viewBox="0 0 17 17" fill="none" xmlns="http://www.w3.org/2000/svg">
<path d="M8.5 11.6875C6.73959 11.6875 5.3125 10.2604 5.3125 8.5C5.3125 6.73959 6.73959 5.3125 8.5 5.3125C10.2604 5.3125 11.6875 6.73959 11.6875 8.5C11.6875 10.2604 10.2604 11.6875 8.5 11.6875ZM8.5 12.75C10.8472 12.75 12.75 10.8472 12.75 8.5C12.75 6.15279 10.8472 4.25 8.5 4.25C6.15279 4.25 4.25 6.15279 4.25 8.5C4.25 10.8472 6.15279 12.75 8.5 12.75Z" fill="white"/>
<path d="M8.5 0C8.7934 0 9.03125 0.237849 9.03125 0.53125V2.65625C9.03125 2.94965 8.7934 3.1875 8.5 3.1875C8.2066 3.1875 7.96875 2.94965 7.96875 2.65625V0.53125C7.96875 0.237849 8.2066 0 8.5 0Z" fill="white"/>
<path d="M8.5 13.8125C8.7934 13.8125 9.03125 14.0503 9.03125 14.3438V16.4688C9.03125 16.7622 8.7934 17 8.5 17C8.2066 17 7.96875 16.7622 7.96875 16.4688V14.3438C7.96875 14.0503 8.2066 13.8125 8.5 13.8125Z" fill="white"/>
<path d="M17 8.5C17 8.7934 16.7622 9.03125 16.4688 9.03125H14.3438C14.0503 9.03125 13.8125 8.7934 13.8125 8.5C13.8125 8.2066 14.0503 7.96875 14.3438 7.96875H16.4688C16.7622 7.96875 17 8.2066 17 8.5Z" fill="white"/>
<path d="M3.1875 8.5C3.1875 8.7934 2.94965 9.03125 2.65625 9.03125H0.53125C0.237849 9.03125 -1.2825e-08 8.7934 0 8.5C1.2825e-08 8.2066 0.237849 7.96875 0.53125 7.96875H2.65625C2.94965 7.96875 3.1875 8.2066 3.1875 8.5Z" fill="white"/>
<path d="M14.5104 2.48963C14.7179 2.69709 14.7179 3.03346 14.5104 3.24093L13.0078 4.74353C12.8003 4.95099 12.464 4.95099 12.2565 4.74353C12.049 4.53606 12.049 4.19969 12.2565 3.99223L13.7591 2.48963C13.9666 2.28216 14.3029 2.28216 14.5104 2.48963Z" fill="white"/>
<path d="M4.74349 12.2565C4.95096 12.464 4.95096 12.8004 4.74349 13.0078L3.24089 14.5104C3.03343 14.7179 2.69706 14.7179 2.48959 14.5104C2.28212 14.303 2.28212 13.9666 2.48959 13.7591L3.99219 12.2565C4.19966 12.0491 4.53603 12.0491 4.74349 12.2565Z" fill="white"/>
<path d="M14.5104 14.5105C14.3029 14.7179 13.9666 14.7179 13.7591 14.5105L12.2565 13.0079C12.049 12.8004 12.049 12.464 12.2565 12.2566C12.464 12.0491 12.8003 12.0491 13.0078 12.2566L14.5104 13.7592C14.7179 13.9666 14.7179 14.303 14.5104 14.5105Z" fill="white"/>
<path d="M4.74349 4.74354C4.53603 4.95101 4.19966 4.95101 3.99219 4.74354L2.48959 3.24094C2.28213 3.03347 2.28213 2.6971 2.48959 2.48964C2.69706 2.28217 3.03343 2.28217 3.24089 2.48964L4.74349 3.99224C4.95096 4.19971 4.95096 4.53608 4.74349 4.74354Z" fill="white"/>
</svg>
